<?xml version="1.0" encoding="UTF-8"?>
<svg width="187px" height="26px" viewBox="0 0 187 26" version="1.1" xmlns="http://www.w3.org/2000/svg" xmlns:xlink="http://www.w3.org/1999/xlink">
    <title>/Web svg/1354-Logo</title>
    <defs>
        <linearGradient x1="50%" y1="0.0235398259%" x2="50%" y2="99.9736406%" id="linearGradient-1">
            <stop stop-color="#002A91" offset="0%"></stop>
            <stop stop-color="#002672" offset="80%"></stop>
        </linearGradient>
        <linearGradient x1="50.47962%" y1="55.0448975%" x2="49.6715602%" y2="46.0800002%" id="linearGradient-2">
            <stop stop-color="#FFFFFF" offset="0%"></stop>
            <stop stop-color="#FFFFFF" stop-opacity="0.25" offset="100%"></stop>
        </linearGradient>
        <linearGradient x1="49.9840076%" y1="0%" x2="49.9840076%" y2="100%" id="linearGradient-3">
            <stop stop-color="#FF0000" offset="40%"></stop>
            <stop stop-color="#D42321" offset="100%"></stop>
        </linearGradient>
        <linearGradient x1="50.1583492%" y1="51.0813387%" x2="49.5917187%" y2="48.1823963%" id="linearGradient-4">
            <stop stop-color="#FFFFFF" offset="0%"></stop>
            <stop stop-color="#FFFFFF" stop-opacity="0.25" offset="100%"></stop>
        </linearGradient>
    </defs>
    <g id="1354-Logo" stroke="none" stroke-width="1" fill="none" fill-rule="evenodd">
        <g id="Group" fill-rule="nonzero">
            <g id="Sky_Sports_Racing_PRIMARY_RGB">
                <g id="XMLID_262_" transform="translate(117.650000, 0.000000)" fill="#FFFFFF">
                    <path d="M66.9933333,26 L1.755,26 C0.801666667,26 0.0216666667,25.22 0.0216666667,24.2666667 L0.0216666667,1.73333333 C0.0216666667,0.78 0.801666667,0 1.755,0 L66.9933333,0 C67.9466667,0 68.7266667,0.78 68.7266667,1.73333333 L68.7266667,24.2666667 C68.7266667,25.22 67.9466667,26 66.9933333,26 Z" id="Path"></path>
                </g>
                <g id="Group" transform="translate(126.750000, 4.550000)" fill="#002A91">
                    <path d="M6.34833333,4.24666667 C6.34833333,4.94 6.045,5.09166667 5.33,5.09166667 C3.87833333,5.09166667 2.64333333,5.76333333 1.885,7.345 L1.885,13.0866667 C1.885,13.52 1.64666667,13.7366667 0.953333333,13.7366667 C0.65,13.7366667 0.325,13.6933333 0.151666667,13.65 L0.151666667,3.46666667 C0.325,3.42333333 0.65,3.38 0.953333333,3.38 C1.64666667,3.38 1.885,3.64 1.885,4.03 L1.885,5.43833333 C2.88166667,3.94333333 4.37666667,3.185 6.26166667,3.42333333 C6.28333333,3.61833333 6.34833333,3.94333333 6.34833333,4.24666667 Z" id="Path"></path>
                    <path d="M15.925,7.15 L15.925,13.6716667 C15.7516667,13.715 15.4483333,13.7583333 15.145,13.7583333 C14.5166667,13.7583333 14.2133333,13.52 14.2133333,13.1083333 L14.2133333,12.22 C13.3033333,13.2383333 12.1333333,13.8666667 10.6166667,13.8666667 C8.36333333,13.8666667 7.10666667,12.3933333 7.10666667,10.7683333 C7.10666667,8.32 9.72833333,7.23666667 14.1916667,7.54 L14.1916667,7.17166667 C14.1916667,5.50333333 13.6933333,4.81 11.765,4.81 C10.9633333,4.81 9.88,5.04833333 9.31666667,5.2 C8.97,5.28666667 8.73166667,5.37333333 8.515,5.37333333 C8.03833333,5.37333333 7.71333333,4.94 7.88666667,4.05166667 C8.92666667,3.66166667 10.4216667,3.315 11.8733333,3.315 C14.8416667,3.29333333 15.925,4.63666667 15.925,7.15 Z M14.1916667,10.7033333 L14.1916667,8.775 C11.2666667,8.55833333 8.84,8.94833333 8.84,10.7033333 C8.84,11.5916667 9.57666667,12.3933333 10.92,12.3933333 C12.2633333,12.3933333 13.455,11.7216667 14.1916667,10.7033333 Z" id="Shape"></path>
                    <path d="M18.005,8.55833333 C18.005,5.525 20.2366667,3.29333333 23.1616667,3.29333333 C24.5266667,3.29333333 25.805,3.68333333 26.6933333,4.095 C26.845,5.04833333 26.5416667,5.43833333 26.13,5.43833333 C25.3933333,5.43833333 24.765,4.83166667 23.2266667,4.83166667 C21.32,4.83166667 19.76,6.24 19.76,8.58 C19.76,10.8766667 21.32,12.3283333 23.2266667,12.3283333 C24.7433333,12.3283333 25.3933333,11.7 26.065,11.7 C26.52,11.7 26.8233333,12.1116667 26.6933333,13.0433333 C25.805,13.4983333 24.5266667,13.8666667 23.1616667,13.8666667 C20.2366667,13.8666667 18.005,11.57 18.005,8.55833333 Z" id="Path"></path>
                    <path d="M28.4483333,1.19166667 C28.4483333,0.563333333 28.9466667,0.0866666667 29.5533333,0.0866666667 C30.1816667,0.0866666667 30.68,0.541666667 30.68,1.19166667 C30.68,1.755 30.2033333,2.29666667 29.5533333,2.29666667 C28.9466667,2.275 28.4483333,1.755 28.4483333,1.19166667 Z M28.6866667,13.6716667 L28.6866667,4.05166667 C28.6866667,3.64 28.925,3.40166667 29.6183333,3.40166667 C29.9216667,3.40166667 30.225,3.445 30.3983333,3.48833333 L30.3983333,13.0866667 C30.3983333,13.52 30.1816667,13.7366667 29.4883333,13.7366667 C29.185,13.7583333 28.86,13.715 28.6866667,13.6716667 Z" id="Shape"></path>
                    <path d="M42.0333333,7.605 L42.0333333,13.0866667 C42.0333333,13.4983333 41.795,13.7366667 41.1016667,13.7366667 C40.7983333,13.7366667 40.4733333,13.6933333 40.3,13.65 L40.3,7.84333333 C40.3,5.80666667 39.3033333,4.83166667 37.8083333,4.83166667 C36.6383333,4.83166667 35.3816667,5.63333333 34.8616667,6.58666667 L34.8616667,13.0866667 C34.8616667,13.4983333 34.6233333,13.7366667 33.93,13.7366667 C33.6266667,13.7366667 33.3016667,13.6933333 33.1283333,13.65 L33.1283333,3.46666667 C33.3016667,3.42333333 33.6266667,3.38 33.93,3.38 C34.6233333,3.38 34.8616667,3.64 34.8616667,4.03 L34.8616667,4.89666667 C35.5983333,3.98666667 36.725,3.27166667 38.22,3.27166667 C40.3,3.29333333 42.0333333,4.615 42.0333333,7.605 Z" id="Path"></path>
                    <path d="M54.0583333,3.48833333 L54.0583333,12.7183333 C54.0583333,15.3833333 52.0866667,17.0733333 49.0316667,17.0733333 C47.6016667,17.0733333 46.0633333,16.64 44.9583333,16.12 C44.85,15.1233333 45.175,14.7333333 45.6083333,14.7333333 C45.8683333,14.7333333 46.1066667,14.8633333 46.54,15.0366667 C47.1033333,15.275 47.97,15.5783333 48.9883333,15.5783333 C51.0033333,15.5783333 52.3033333,14.625 52.3033333,12.675 L52.3033333,11.9816667 C51.7183333,12.7833333 50.4833333,13.5416667 48.815,13.5416667 C46.3666667,13.5416667 44.0916667,11.57 44.0916667,8.42833333 C44.0916667,5.265 46.3666667,3.315 48.8366667,3.315 C50.4616667,3.315 51.6966667,4.07333333 52.325,4.91833333 L52.325,4.095 C52.325,3.68333333 52.5633333,3.42333333 53.2133333,3.42333333 C53.5383333,3.40166667 53.885,3.445 54.0583333,3.48833333 Z M52.325,6.71666667 C51.7833333,5.54666667 50.5916667,4.76666667 49.205,4.76666667 C47.32,4.76666667 45.8683333,6.11 45.8683333,8.40666667 C45.8683333,10.7033333 47.32,12.0466667 49.205,12.0466667 C50.57,12.0466667 51.7616667,11.245 52.325,10.0966667 L52.325,6.71666667 Z" id="Shape"></path>
                </g>
                <path d="M25.9783333,24.1366667 C26.2816667,24.2883333 26.91,24.4833333 27.7116667,24.505 C29.0766667,24.5266667 29.8133333,24.0066667 30.355,22.7933333 L37.635,6.58666667 C37.3316667,6.435 36.66,6.24 36.1183333,6.24 C35.1866667,6.21833333 33.93,6.41333333 33.1283333,8.32 L30.7666667,13.8666667 L26.1516667,6.34833333 C25.8483333,6.26166667 25.1116667,6.13166667 24.5916667,6.13166667 C22.945,6.13166667 22.035,6.73833333 21.1033333,7.75666667 L16.5966667,12.6533333 L20.215,18.33 C20.8866667,19.37 21.7533333,19.89 23.1833333,19.89 C24.115,19.89 24.895,19.6733333 25.2633333,19.5 L20.9083333,12.9783333 L23.985,9.70666667 L29.055,17.6366667 L25.9783333,24.1366667 Z M16.4233333,18.005 C16.4233333,19.1966667 15.9466667,19.89 13.6066667,19.89 C13.3033333,19.89 13.0216667,19.8683333 12.7616667,19.825 L12.7616667,3.965 C12.7616667,2.75166667 13.1733333,1.495 15.535,1.495 C15.8383333,1.495 16.1416667,1.51666667 16.4233333,1.58166667 L16.4233333,18.005 Z M11.5916667,15.6 C11.5916667,17.8316667 10.14,19.4566667 7.17166667,19.7816667 C5.02666667,20.02 1.90666667,19.7383333 0.433333333,19.565 C0.39,19.3266667 0.346666667,19.0233333 0.346666667,18.785 C0.346666667,16.835 1.38666667,16.4016667 2.38333333,16.4016667 C3.40166667,16.4016667 5.02666667,16.575 6.24,16.575 C7.56166667,16.575 7.97333333,16.12 7.97333333,15.7083333 C7.97333333,15.145 7.45333333,14.9283333 6.41333333,14.7116667 L3.59666667,14.17 C1.25666667,13.7366667 0,12.1116667 0,10.4 C0,8.32 1.47333333,6.565 4.37666667,6.26166667 C6.565,6.02333333 9.25166667,6.28333333 10.725,6.47833333 C10.7683333,6.71666667 10.8116667,6.97666667 10.8116667,7.23666667 C10.8116667,9.18666667 9.79333333,9.59833333 8.79666667,9.59833333 C8.03833333,9.59833333 6.86833333,9.46833333 5.50333333,9.46833333 C4.13833333,9.46833333 3.575,9.83666667 3.575,10.3133333 C3.575,10.8116667 4.11666667,11.0066667 4.98333333,11.1583333 L7.67,11.6566667 C10.4,12.1116667 11.5916667,13.6716667 11.5916667,15.6 Z" id="Sky_x5F_Logo_1_" fill="url(#linearGradient-1)"></path>
                <path d="M37.635,6.58666667 L34.97,12.5233333 C34.8833333,12.675 34.6016667,13.195 33.865,13.2166667 C33.6916667,13.2166667 31.4383333,13.3033333 31.4383333,13.3033333 C31.005,13.325 30.8533333,13.7366667 30.8533333,13.7366667 L30.8533333,13.7366667 L33.15,8.32 C33.9516667,6.41333333 35.2083333,6.21833333 36.14,6.24 C36.66,6.24 37.3316667,6.41333333 37.635,6.58666667 Z M30.6583333,13.6716667 L26.1516667,6.34833333 C25.8483333,6.26166667 25.1116667,6.13166667 24.5916667,6.13166667 C22.945,6.13166667 22.035,6.73833333 21.1033333,7.75666667 L16.5966667,12.6533333 L16.965,13.2166667 C17.1166667,13.4333333 17.42,13.78 18.0266667,13.7583333 C18.2433333,13.7583333 20.41,13.6716667 20.5833333,13.6716667 C21.1466667,13.65 21.4933333,13.8883333 21.71,14.17 L21.71,14.17 L20.9083333,12.9566667 L23.985,9.685 L26.065,12.935 L26.065,12.935 C26.4333333,13.4333333 26.9966667,13.4333333 27.1266667,13.4333333 C27.235,13.4333333 29.9433333,13.325 30.0733333,13.325 C30.2683333,13.325 30.485,13.4333333 30.6583333,13.6716667 Z M15.535,1.495 C13.1733333,1.495 12.7833333,2.75166667 12.7833333,3.965 L12.7833333,14.8416667 C12.7833333,14.4083333 13.13,13.9533333 13.6716667,13.9316667 C14.0616667,13.91 15.1666667,13.8883333 15.4916667,13.8666667 C15.86,13.845 16.4016667,13.6066667 16.4233333,12.935 L16.4233333,1.58166667 C16.1416667,1.53833333 15.8383333,1.495 15.535,1.495 Z M7.64833333,11.6133333 L4.96166667,11.115 C4.095,10.9633333 3.55333333,10.7683333 3.55333333,10.27 C3.55333333,9.815 4.11666667,9.425 5.48166667,9.425 C6.825,9.425 8.01666667,9.555 8.775,9.555 C9.77166667,9.555 10.79,9.14333333 10.79,7.19333333 C10.79,6.93333333 10.7683333,6.695 10.7033333,6.435 C9.23,6.26166667 6.565,5.98 4.355,6.21833333 C1.47333333,6.565 0,8.32 0,10.4 C0,11.4616667 0.476666667,12.5016667 1.43,13.2383333 C2.145,13.6933333 2.86,13.8883333 3.59666667,14.0183333 C4.20333333,14.1266667 5.56833333,14.2133333 6.60833333,14.17 C6.93333333,14.1483333 9.295,14.0833333 9.815,14.0616667 C11.0066667,14.0183333 11.6783333,15.0366667 11.5916667,16.0766667 C11.5916667,16.055 11.5916667,16.055 11.5916667,16.0333333 C11.5916667,16.0333333 11.5916667,16.0333333 11.5916667,16.0116667 C11.6133333,15.8816667 11.6133333,15.7516667 11.6133333,15.6 C11.5916667,13.6716667 10.4,12.1116667 7.64833333,11.6133333 Z" id="s25_2_" fill="url(#linearGradient-2)" opacity="0.25"></path>
                <path d="M119.578333,0 L43.2683333,0 C42.315,0 41.535,0.78 41.535,1.73333333 L41.535,24.2666667 C41.535,25.22 42.315,26 43.2683333,26 L119.6,26 C120.553333,26 121.333333,25.22 121.333333,24.2666667 L121.333333,1.73333333 C121.311667,0.78 120.531667,0 119.578333,0 Z" id="Plinth_1_" fill="url(#linearGradient-3)"></path>
                <path d="M42.77,12.8916667 C42.77,12.8916667 42.835,12.8916667 42.9433333,12.8916667 C48.0783333,12.7183333 120.033333,10.205 120.033333,10.205 C120.683333,10.1833333 121.333333,9.70666667 121.333333,8.88333333 L121.333333,1.73333333 C121.333333,0.78 120.553333,0 119.6,0 L43.2683333,0 C42.315,0 41.535,0.78 41.535,1.73333333 L41.535,14.2566667 C41.535,14.105 41.5566667,13.0216667 42.77,12.8916667 Z" id="p40_8_" fill="url(#linearGradient-4)" opacity="0.4"></path>
                <g id="Group" transform="translate(46.366667, 4.116667)" fill="#FFFFFF">
                    <path d="M0.151666667,14.56 C4.16333634e-17,13.4983333 0.325,12.935 0.953333333,12.935 C1.53833333,12.935 2.96833333,13.5633333 4.96166667,13.5633333 C7.06333333,13.5633333 7.84333333,12.8266667 7.84333333,11.8516667 C7.84333333,11.1583333 7.54,10.5516667 5.655,10.0316667 L3.48833333,9.44666667 C1.08333333,8.81833333 0.151666667,7.605 0.151666667,6.13166667 C0.151666667,4.29 1.60333333,2.665 4.89666667,2.665 C6.37,2.665 8.21166667,2.99 9.33833333,3.42333333 C9.53333333,4.46333333 9.20833333,5.02666667 8.58,5.02666667 C8.01666667,5.02666667 6.73833333,4.485 4.94,4.485 C2.99,4.485 2.275,5.15666667 2.275,6.02333333 C2.275,6.63 2.55666667,7.19333333 4.29,7.69166667 L6.5,8.29833333 C8.97,8.99166667 9.96666667,10.14 9.96666667,11.765 C9.96666667,13.6716667 8.49333333,15.3833333 4.91833333,15.3833333 C3.315,15.405 1.34333333,15.015 0.151666667,14.56 Z" id="Path"></path>
                    <path d="M24.7,9.035 C24.7,13.0433333 21.8833333,15.405 18.8066667,15.405 C16.965,15.405 15.47,14.5383333 14.56,13.3033333 L14.56,18.46 C14.56,18.9366667 14.2783333,19.2616667 13.455,19.2616667 C13.0433333,19.2616667 12.6533333,19.2183333 12.4583333,19.1533333 L12.4583333,2.90333333 C12.6533333,2.86 13.0433333,2.795 13.455,2.795 C14.2783333,2.795 14.56,3.09833333 14.56,3.59666667 L14.56,4.76666667 C15.4483333,3.53166667 16.965,2.665 18.8066667,2.665 C21.8833333,2.665 24.7,5.04833333 24.7,9.035 Z M22.5766667,9.035 C22.5766667,6.34833333 20.8,4.50666667 18.395,4.50666667 C16.77,4.50666667 15.2533333,5.46 14.56,6.825 L14.56,11.245 C15.2533333,12.6316667 16.7483333,13.5633333 18.395,13.5633333 C20.8,13.5633333 22.5766667,11.7216667 22.5766667,9.035 Z" id="Shape"></path>
                    <path d="M26.715,9.035 C26.715,5.395 29.4016667,2.68666667 32.9983333,2.68666667 C36.6166667,2.68666667 39.3033333,5.395 39.3033333,9.035 C39.3033333,12.6533333 36.6166667,15.405 32.9983333,15.405 C29.4016667,15.405 26.715,12.6533333 26.715,9.035 Z M37.18,9.035 C37.18,6.21833333 35.295,4.50666667 32.9983333,4.50666667 C30.7233333,4.50666667 28.8383333,6.21833333 28.8383333,9.035 C28.8383333,11.8083333 30.7233333,13.585 32.9983333,13.585 C35.295,13.5633333 37.18,11.8083333 37.18,9.035 Z" id="Shape"></path>
                    <path d="M49.465,3.81333333 C49.465,4.65833333 49.1183333,4.83166667 48.23,4.83166667 C46.475,4.83166667 44.98,5.655 44.07,7.56166667 L44.07,14.4733333 C44.07,14.9933333 43.7883333,15.275 42.9433333,15.275 C42.5966667,15.275 42.185,15.2316667 41.9683333,15.1666667 L41.9683333,2.90333333 C42.1633333,2.86 42.575,2.795 42.9433333,2.795 C43.7883333,2.795 44.07,3.09833333 44.07,3.59666667 L44.07,5.30833333 C45.2616667,3.48833333 47.0816667,2.57833333 49.3566667,2.88166667 C49.3783333,3.055 49.465,3.445 49.465,3.81333333 Z" id="Path"></path>
                    <path d="M58.6516667,14.56 C57.59,15.08 56.355,15.405 55.12,15.405 C52.6933333,15.405 51.2416667,13.975 51.2416667,11.5916667 L51.2416667,1.06166667 C51.2416667,0.52 51.545,0.173333333 52.3683333,0.173333333 C52.715,0.173333333 53.1266667,0.26 53.3433333,0.303333333 L53.3433333,2.96833333 L58.11,2.96833333 C58.1316667,3.14166667 58.1966667,3.51 58.1966667,3.81333333 C58.1966667,4.55 57.8933333,4.81 57.4383333,4.81 L53.365,4.81 L53.365,11.4616667 C53.365,12.8916667 54.0366667,13.585 55.38,13.585 C56.615,13.585 57.2866667,13.0433333 57.8716667,13.0433333 C58.4566667,13.0433333 58.7816667,13.5416667 58.6516667,14.56 Z" id="Path"></path>
                    <path d="M60.1033333,14.56 C59.9516667,13.4983333 60.2766667,12.935 60.905,12.935 C61.49,12.935 62.92,13.5633333 64.9133333,13.5633333 C67.015,13.5633333 67.795,12.8266667 67.795,11.8516667 C67.795,11.1583333 67.4916667,10.5516667 65.6066667,10.0316667 L63.44,9.44666667 C61.035,8.81833333 60.1033333,7.605 60.1033333,6.13166667 C60.1033333,4.29 61.555,2.665 64.8483333,2.665 C66.3216667,2.665 68.1633333,2.99 69.29,3.42333333 C69.485,4.46333333 69.16,5.02666667 68.5316667,5.02666667 C67.9683333,5.02666667 66.69,4.485 64.8916667,4.485 C62.9416667,4.485 62.2266667,5.15666667 62.2266667,6.02333333 C62.2266667,6.63 62.5083333,7.19333333 64.2416667,7.69166667 L66.4516667,8.29833333 C68.9216667,8.99166667 69.9183333,10.14 69.9183333,11.765 C69.9183333,13.6716667 68.445,15.3833333 64.87,15.3833333 C63.2666667,15.405 61.295,15.015 60.1033333,14.56 Z" id="Path"></path>
                </g>
            </g>
        </g>
    </g>
</svg>